<svg xmlns="http://www.w3.org/2000/svg" width="30" height="30" viewBox="0 0 30 30">
    <g fill="none" fill-rule="evenodd">
        <circle cx="15" cy="15" r="15" fill="#000" opacity=".434"/>
        <path fill="#FFF" fill-rule="nonzero" d="M16.34 15.484l6.709-6.71c.236-.236.236-.619 0-.855-.237-.236-.62-.236-.856 0l-6.71 6.71-6.709-6.71c-.236-.236-.619-.236-.855 0s-.236.62 0 .856l6.71 6.709-6.71 6.71c-.236.236-.236.619 0 .855.118.118.273.177.428.177.155 0 .31-.06.428-.177l6.709-6.71 6.71 6.71c.117.118.272.177.427.177.155 0 .31-.06.428-.177.236-.237.236-.62 0-.856l-6.71-6.71z"/>
    </g>
</svg>
